<svg xmlns="http://www.w3.org/2000/svg" viewBox="0 0 20 25" width="80" height="100" shape-rendering="crispEdges"><rect x="13" y="0" width="1" height="1" fill="#F5D77E"/><rect x="12" y="1" width="1" height="1" fill="#4A3628"/><rect x="13" y="1" width="1" height="1" fill="#F5D77E"/><rect x="14" y="1" width="1" height="1" fill="#4A3628"/><rect x="12" y="2" width="1" height="1" fill="#4A3628"/><rect x="13" y="2" width="1" height="1" fill="#F2C3B9"/><rect x="14" y="2" width="1" height="1" fill="#4A3628"/><rect x="11" y="3" width="1" height="1" fill="#4A3628"/><rect x="12" y="3" width="1" height="1" fill="#97B3AE"/><rect x="13" y="3" width="1" height="1" fill="#F2C3B9"/><rect x="14" y="3" width="1" height="1" fill="#97B3AE"/><rect x="15" y="3" width="1" height="1" fill="#4A3628"/><rect x="11" y="4" width="1" height="1" fill="#4A3628"/><rect x="12" y="4" width="1" height="1" fill="#F2C3B9"/><rect x="13" y="4" width="1" height="1" fill="#97B3AE"/><rect x="14" y="4" width="1" height="1" fill="#F2C3B9"/><rect x="15" y="4" width="1" height="1" fill="#4A3628"/><rect x="10" y="5" width="1" height="1" fill="#4A3628"/><rect x="11" y="5" width="1" height="1" fill="#97B3AE"/><rect x="12" y="5" width="1" height="1" fill="#F2C3B9"/><rect x="13" y="5" width="1" height="1" fill="#97B3AE"/><rect x="14" y="5" width="1" height="1" fill="#F2C3B9"/><rect x="15" y="5" width="1" height="1" fill="#97B3AE"/><rect x="16" y="5" width="1" height="1" fill="#4A3628"/><rect x="10" y="6" width="1" height="1" fill="#4A3628"/><rect x="11" y="6" width="1" height="1" fill="#F2C3B9"/><rect x="12" y="6" width="1" height="1" fill="#97B3AE"/><rect x="13" y="6" width="1" height="1" fill="#F2C3B9"/><rect x="14" y="6" width="1" height="1" fill="#97B3AE"/><rect x="15" y="6" width="1" height="1" fill="#F2C3B9"/><rect x="16" y="6" width="1" height="1" fill="#4A3628"/><rect x="9" y="7" width="8" height="1" fill="#4A3628"/><rect x="8" y="8" width="1" height="1" fill="#4A3628"/><rect x="9" y="8" width="7" height="1" fill="#E3A857"/><rect x="16" y="8" width="1" height="1" fill="#4A3628"/><rect x="7" y="9" width="1" height="1" fill="#4A3628"/><rect x="8" y="9" width="1" height="1" fill="#C2843E"/><rect x="9" y="9" width="4" height="1" fill="#E3A857"/><rect x="13" y="9" width="1" height="1" fill="#2B2622"/><rect x="14" y="9" width="3" height="1" fill="#E3A857"/><rect x="17" y="9" width="1" height="1" fill="#4A3628"/><rect x="6" y="10" width="1" height="1" fill="#4A3628"/><rect x="7" y="10" width="2" height="1" fill="#C2843E"/><rect x="9" y="10" width="8" height="1" fill="#E3A857"/><rect x="17" y="10" width="1" height="1" fill="#2B2622"/><rect x="18" y="10" width="1" height="1" fill="#4A3628"/><rect x="6" y="11" width="1" height="1" fill="#4A3628"/><rect x="7" y="11" width="2" height="1" fill="#C2843E"/><rect x="9" y="11" width="5" height="1" fill="#E3A857"/><rect x="14" y="11" width="4" height="1" fill="#F4D19B"/><rect x="18" y="11" width="1" height="1" fill="#4A3628"/><rect x="6" y="12" width="1" height="1" fill="#4A3628"/><rect x="7" y="12" width="3" height="1" fill="#C2843E"/><rect x="10" y="12" width="4" height="1" fill="#E3A857"/><rect x="14" y="12" width="1" height="1" fill="#F4D19B"/><rect x="15" y="12" width="3" height="1" fill="#4A3628"/><rect x="7" y="13" width="1" height="1" fill="#4A3628"/><rect x="8" y="13" width="2" height="1" fill="#C2843E"/><rect x="10" y="13" width="4" height="1" fill="#E3A857"/><rect x="14" y="13" width="1" height="1" fill="#F4D19B"/><rect x="15" y="13" width="1" height="1" fill="#F2A39A"/><rect x="16" y="13" width="1" height="1" fill="#4A3628"/><rect x="7" y="14" width="1" height="1" fill="#4A3628"/><rect x="8" y="14" width="2" height="1" fill="#C2843E"/><rect x="10" y="14" width="1" height="1" fill="#4A3628"/><rect x="11" y="14" width="4" height="1" fill="#E3A857"/><rect x="15" y="14" width="2" height="1" fill="#4A3628"/><rect x="2" y="15" width="2" height="1" fill="#4A3628"/><rect x="7" y="15" width="3" height="1" fill="#4A3628"/><rect x="10" y="15" width="5" height="1" fill="#E3A857"/><rect x="15" y="15" width="1" height="1" fill="#4A3628"/><rect x="1" y="16" width="1" height="1" fill="#4A3628"/><rect x="2" y="16" width="2" height="1" fill="#E3A857"/><rect x="4" y="16" width="1" height="1" fill="#4A3628"/><rect x="7" y="16" width="1" height="1" fill="#4A3628"/><rect x="8" y="16" width="4" height="1" fill="#E3A857"/><rect x="12" y="16" width="2" height="1" fill="#F4D19B"/><rect x="14" y="16" width="1" height="1" fill="#E3A857"/><rect x="15" y="16" width="1" height="1" fill="#4A3628"/><rect x="1" y="17" width="1" height="1" fill="#4A3628"/><rect x="2" y="17" width="3" height="1" fill="#E3A857"/><rect x="5" y="17" width="2" height="1" fill="#4A3628"/><rect x="7" y="17" width="4" height="1" fill="#E3A857"/><rect x="11" y="17" width="3" height="1" fill="#F4D19B"/><rect x="14" y="17" width="1" height="1" fill="#E3A857"/><rect x="15" y="17" width="1" height="1" fill="#4A3628"/><rect x="2" y="18" width="1" height="1" fill="#4A3628"/><rect x="3" y="18" width="8" height="1" fill="#E3A857"/><rect x="11" y="18" width="3" height="1" fill="#F4D19B"/><rect x="14" y="18" width="1" height="1" fill="#E3A857"/><rect x="15" y="18" width="1" height="1" fill="#4A3628"/><rect x="3" y="19" width="2" height="1" fill="#4A3628"/><rect x="5" y="19" width="6" height="1" fill="#E3A857"/><rect x="11" y="19" width="3" height="1" fill="#F4D19B"/><rect x="14" y="19" width="1" height="1" fill="#E3A857"/><rect x="15" y="19" width="1" height="1" fill="#4A3628"/><rect x="4" y="20" width="1" height="1" fill="#4A3628"/><rect x="5" y="20" width="6" height="1" fill="#E3A857"/><rect x="11" y="20" width="2" height="1" fill="#F4D19B"/><rect x="13" y="20" width="2" height="1" fill="#E3A857"/><rect x="15" y="20" width="1" height="1" fill="#4A3628"/><rect x="4" y="21" width="1" height="1" fill="#4A3628"/><rect x="5" y="21" width="2" height="1" fill="#E3A857"/><rect x="7" y="21" width="1" height="1" fill="#C2843E"/><rect x="8" y="21" width="3" height="1" fill="#E3A857"/><rect x="11" y="21" width="1" height="1" fill="#4A3628"/><rect x="12" y="21" width="1" height="1" fill="#F4D19B"/><rect x="13" y="21" width="2" height="1" fill="#E3A857"/><rect x="15" y="21" width="1" height="1" fill="#4A3628"/><rect x="4" y="22" width="1" height="1" fill="#4A3628"/><rect x="5" y="22" width="2" height="1" fill="#E3A857"/><rect x="7" y="22" width="1" height="1" fill="#C2843E"/><rect x="8" y="22" width="3" height="1" fill="#E3A857"/><rect x="11" y="22" width="1" height="1" fill="#4A3628"/><rect x="12" y="22" width="1" height="1" fill="#F4D19B"/><rect x="13" y="22" width="2" height="1" fill="#E3A857"/><rect x="15" y="22" width="1" height="1" fill="#4A3628"/><rect x="3" y="23" width="1" height="1" fill="#4A3628"/><rect x="4" y="23" width="3" height="1" fill="#E3A857"/><rect x="7" y="23" width="1" height="1" fill="#C2843E"/><rect x="8" y="23" width="2" height="1" fill="#4A3628"/><rect x="10" y="23" width="1" height="1" fill="#E3A857"/><rect x="11" y="23" width="1" height="1" fill="#4A3628"/><rect x="12" y="23" width="2" height="1" fill="#F4D19B"/><rect x="14" y="23" width="2" height="1" fill="#E3A857"/><rect x="16" y="23" width="1" height="1" fill="#4A3628"/><rect x="3" y="24" width="6" height="1" fill="#4A3628"/><rect x="10" y="24" width="7" height="1" fill="#4A3628"/></svg>
